<mxfile host="Electron" modified="2024-02-28T19:17:18.561Z" agent="Mozilla/5.0 (Windows NT 10.0; Win64; x64) AppleWebKit/537.36 (KHTML, like Gecko) draw.io/21.2.1 Chrome/112.0.5615.87 Electron/24.1.2 Safari/537.36" etag="ZSg0cNasX6L0tdVOQDC-" version="21.2.1" type="device">
  <diagram name="PÃ¡gina-1" id="pnQ3GKe5VCxyX-CvlZlP">
    <mxGraphModel dx="1016" dy="607" grid="1" gridSize="10" guides="1" tooltips="1" connect="1" arrows="1" fold="1" page="1" pageScale="1" pageWidth="827" pageHeight="1169" math="0" shadow="0">
      <root>
        <mxCell id="0" />
        <mxCell id="1" parent="0" />
        <mxCell id="d3822EfM8HdAe-iHSdRQ-12" style="edgeStyle=orthogonalEdgeStyle;rounded=0;orthogonalLoop=1;jettySize=auto;html=1;entryX=0;entryY=0.5;entryDx=0;entryDy=0;" edge="1" parent="1" source="d3822EfM8HdAe-iHSdRQ-1" target="d3822EfM8HdAe-iHSdRQ-2">
          <mxGeometry relative="1" as="geometry">
            <Array as="points">
              <mxPoint x="80" y="250" />
            </Array>
          </mxGeometry>
        </mxCell>
        <mxCell id="d3822EfM8HdAe-iHSdRQ-1" value="Ususario" style="rounded=0;whiteSpace=wrap;html=1;" vertex="1" parent="1">
          <mxGeometry x="20" y="310" width="120" height="60" as="geometry" />
        </mxCell>
        <mxCell id="d3822EfM8HdAe-iHSdRQ-13" style="edgeStyle=orthogonalEdgeStyle;rounded=0;orthogonalLoop=1;jettySize=auto;html=1;entryX=0;entryY=0.5;entryDx=0;entryDy=0;" edge="1" parent="1" source="d3822EfM8HdAe-iHSdRQ-2" target="d3822EfM8HdAe-iHSdRQ-3">
          <mxGeometry relative="1" as="geometry" />
        </mxCell>
        <mxCell id="d3822EfM8HdAe-iHSdRQ-2" value="Loguear" style="rounded=0;whiteSpace=wrap;html=1;" vertex="1" parent="1">
          <mxGeometry x="180" y="220" width="120" height="60" as="geometry" />
        </mxCell>
        <mxCell id="d3822EfM8HdAe-iHSdRQ-14" style="edgeStyle=orthogonalEdgeStyle;rounded=0;orthogonalLoop=1;jettySize=auto;html=1;entryX=0;entryY=0.5;entryDx=0;entryDy=0;" edge="1" parent="1" source="d3822EfM8HdAe-iHSdRQ-3" target="d3822EfM8HdAe-iHSdRQ-4">
          <mxGeometry relative="1" as="geometry">
            <Array as="points">
              <mxPoint x="400" y="200" />
            </Array>
          </mxGeometry>
        </mxCell>
        <mxCell id="d3822EfM8HdAe-iHSdRQ-15" style="edgeStyle=orthogonalEdgeStyle;rounded=0;orthogonalLoop=1;jettySize=auto;html=1;entryX=0.5;entryY=0;entryDx=0;entryDy=0;" edge="1" parent="1" source="d3822EfM8HdAe-iHSdRQ-3" target="d3822EfM8HdAe-iHSdRQ-8">
          <mxGeometry relative="1" as="geometry" />
        </mxCell>
        <mxCell id="d3822EfM8HdAe-iHSdRQ-3" value="Clientes" style="rounded=0;whiteSpace=wrap;html=1;" vertex="1" parent="1">
          <mxGeometry x="340" y="220" width="120" height="60" as="geometry" />
        </mxCell>
        <mxCell id="d3822EfM8HdAe-iHSdRQ-4" value="Almacen de datos" style="shape=process;whiteSpace=wrap;html=1;backgroundOutline=1;" vertex="1" parent="1">
          <mxGeometry x="500" y="170" width="120" height="60" as="geometry" />
        </mxCell>
        <mxCell id="d3822EfM8HdAe-iHSdRQ-24" style="edgeStyle=orthogonalEdgeStyle;rounded=0;orthogonalLoop=1;jettySize=auto;html=1;entryX=0.5;entryY=1;entryDx=0;entryDy=0;" edge="1" parent="1" source="d3822EfM8HdAe-iHSdRQ-5" target="d3822EfM8HdAe-iHSdRQ-1">
          <mxGeometry relative="1" as="geometry" />
        </mxCell>
        <mxCell id="d3822EfM8HdAe-iHSdRQ-5" value="Factura" style="rounded=0;whiteSpace=wrap;html=1;" vertex="1" parent="1">
          <mxGeometry x="180" y="390" width="120" height="60" as="geometry" />
        </mxCell>
        <mxCell id="d3822EfM8HdAe-iHSdRQ-18" style="edgeStyle=orthogonalEdgeStyle;rounded=0;orthogonalLoop=1;jettySize=auto;html=1;entryX=0.5;entryY=0;entryDx=0;entryDy=0;" edge="1" parent="1" source="d3822EfM8HdAe-iHSdRQ-6" target="d3822EfM8HdAe-iHSdRQ-7">
          <mxGeometry relative="1" as="geometry" />
        </mxCell>
        <mxCell id="d3822EfM8HdAe-iHSdRQ-23" style="edgeStyle=orthogonalEdgeStyle;rounded=0;orthogonalLoop=1;jettySize=auto;html=1;entryX=1;entryY=0.5;entryDx=0;entryDy=0;" edge="1" parent="1" source="d3822EfM8HdAe-iHSdRQ-6" target="d3822EfM8HdAe-iHSdRQ-5">
          <mxGeometry relative="1" as="geometry" />
        </mxCell>
        <mxCell id="d3822EfM8HdAe-iHSdRQ-6" value="Estado Pedidos" style="rounded=0;whiteSpace=wrap;html=1;" vertex="1" parent="1">
          <mxGeometry x="340" y="330" width="120" height="60" as="geometry" />
        </mxCell>
        <mxCell id="d3822EfM8HdAe-iHSdRQ-7" value="Pedidos" style="rounded=0;whiteSpace=wrap;html=1;" vertex="1" parent="1">
          <mxGeometry x="500" y="390" width="120" height="60" as="geometry" />
        </mxCell>
        <mxCell id="d3822EfM8HdAe-iHSdRQ-17" style="edgeStyle=orthogonalEdgeStyle;rounded=0;orthogonalLoop=1;jettySize=auto;html=1;entryX=0.5;entryY=0;entryDx=0;entryDy=0;" edge="1" parent="1" source="d3822EfM8HdAe-iHSdRQ-8" target="d3822EfM8HdAe-iHSdRQ-7">
          <mxGeometry relative="1" as="geometry">
            <Array as="points">
              <mxPoint x="620" y="360" />
              <mxPoint x="560" y="360" />
            </Array>
          </mxGeometry>
        </mxCell>
        <mxCell id="d3822EfM8HdAe-iHSdRQ-19" style="edgeStyle=orthogonalEdgeStyle;rounded=0;orthogonalLoop=1;jettySize=auto;html=1;entryX=1;entryY=0.5;entryDx=0;entryDy=0;" edge="1" parent="1" source="d3822EfM8HdAe-iHSdRQ-8" target="d3822EfM8HdAe-iHSdRQ-9">
          <mxGeometry relative="1" as="geometry">
            <Array as="points">
              <mxPoint x="660" y="520" />
            </Array>
          </mxGeometry>
        </mxCell>
        <mxCell id="d3822EfM8HdAe-iHSdRQ-8" value="Administrador" style="rounded=0;whiteSpace=wrap;html=1;" vertex="1" parent="1">
          <mxGeometry x="560" y="280" width="120" height="60" as="geometry" />
        </mxCell>
        <mxCell id="d3822EfM8HdAe-iHSdRQ-21" style="edgeStyle=orthogonalEdgeStyle;rounded=0;orthogonalLoop=1;jettySize=auto;html=1;entryX=1;entryY=0.5;entryDx=0;entryDy=0;" edge="1" parent="1" source="d3822EfM8HdAe-iHSdRQ-9" target="d3822EfM8HdAe-iHSdRQ-11">
          <mxGeometry relative="1" as="geometry">
            <Array as="points">
              <mxPoint x="560" y="570" />
            </Array>
          </mxGeometry>
        </mxCell>
        <mxCell id="d3822EfM8HdAe-iHSdRQ-9" value="Materia Prima" style="rounded=0;whiteSpace=wrap;html=1;" vertex="1" parent="1">
          <mxGeometry x="500" y="490" width="120" height="60" as="geometry" />
        </mxCell>
        <mxCell id="d3822EfM8HdAe-iHSdRQ-20" style="edgeStyle=orthogonalEdgeStyle;rounded=0;orthogonalLoop=1;jettySize=auto;html=1;entryX=1;entryY=0.5;entryDx=0;entryDy=0;" edge="1" parent="1" source="d3822EfM8HdAe-iHSdRQ-10" target="d3822EfM8HdAe-iHSdRQ-11">
          <mxGeometry relative="1" as="geometry" />
        </mxCell>
        <mxCell id="d3822EfM8HdAe-iHSdRQ-10" value="Producto Terminado" style="rounded=0;whiteSpace=wrap;html=1;" vertex="1" parent="1">
          <mxGeometry x="340" y="490" width="120" height="60" as="geometry" />
        </mxCell>
        <mxCell id="d3822EfM8HdAe-iHSdRQ-22" style="edgeStyle=orthogonalEdgeStyle;rounded=0;orthogonalLoop=1;jettySize=auto;html=1;entryX=0.5;entryY=1;entryDx=0;entryDy=0;" edge="1" parent="1" source="d3822EfM8HdAe-iHSdRQ-11" target="d3822EfM8HdAe-iHSdRQ-5">
          <mxGeometry relative="1" as="geometry" />
        </mxCell>
        <mxCell id="d3822EfM8HdAe-iHSdRQ-11" value="Movimientos" style="rounded=0;whiteSpace=wrap;html=1;" vertex="1" parent="1">
          <mxGeometry x="180" y="540" width="120" height="60" as="geometry" />
        </mxCell>
      </root>
    </mxGraphModel>
  </diagram>
</mxfile>
